<svg width="348" height="80" viewBox="0 0 348 80" fill="none" xmlns="http://www.w3.org/2000/svg">
<path d="M20.5 2L1 40L16.3716 28.4875L20.5 16.9749L24.3649 28.4875L40 40L20.5 2Z" fill="black"/>
<path d="M20.5 78L40 40L24.6284 51.5125L20.5 63.0251L16.6351 51.5125L1 40L20.5 78Z" fill="black"/>
<path d="M1 40L0.555152 39.7717L0.43801 40L0.555152 40.2283L1 40ZM20.5 2L20.9448 1.77172L20.5 0.90484L20.0552 1.77172L20.5 2ZM40 40L40.4448 40.2283L40.562 40L40.4448 39.7717L40 40ZM16.3716 28.4875L16.6714 28.8877L16.7916 28.7976L16.8423 28.6562L16.3716 28.4875ZM20.5 16.9749L20.974 16.8158L20.5156 15.4503L20.0293 16.8062L20.5 16.9749ZM24.3649 28.4875L23.8909 28.6466L23.9412 28.7964L24.0684 28.8901L24.3649 28.4875ZM20.5 78L20.0551 78.2283L20.5 79.0952L20.9448 78.2283L20.5 78ZM24.6284 51.5125L24.3286 51.1123L24.2084 51.2024L24.1577 51.3438L24.6284 51.5125ZM20.5 63.0251L20.026 63.1842L20.4844 64.5497L20.9707 63.1938L20.5 63.0251ZM16.6351 51.5125L17.1091 51.3534L17.0588 51.2036L16.9316 51.1099L16.6351 51.5125ZM1.44485 40.2283L20.9448 2.22828L20.0552 1.77172L0.555152 39.7717L1.44485 40.2283ZM20.0552 2.22828L39.5552 40.2283L40.4448 39.7717L20.9448 1.77172L20.0552 2.22828ZM1.29973 40.4002L16.6714 28.8877L16.0719 28.0873L0.70027 39.5998L1.29973 40.4002ZM16.8423 28.6562L20.9707 17.1437L20.0293 16.8062L15.901 28.3187L16.8423 28.6562ZM20.026 17.1341L23.8909 28.6466L24.8389 28.3283L20.974 16.8158L20.026 17.1341ZM24.0684 28.8901L39.7035 40.4026L40.2965 39.5974L24.6613 28.0848L24.0684 28.8901ZM39.5552 39.7717L20.0551 77.7717L20.9448 78.2283L40.4448 40.2283L39.5552 39.7717ZM20.9448 77.7717L1.44485 39.7717L0.555152 40.2283L20.0551 78.2283L20.9448 77.7717ZM39.7003 39.5998L24.3286 51.1123L24.9281 51.9127L40.2997 40.4002L39.7003 39.5998ZM24.1577 51.3438L20.0293 62.8563L20.9707 63.1938L25.099 51.6813L24.1577 51.3438ZM20.974 62.8659L17.1091 51.3534L16.1611 51.6716L20.026 63.1842L20.974 62.8659ZM16.9316 51.1099L1.29646 39.5974L0.703536 40.4026L16.3387 51.9152L16.9316 51.1099Z" fill="black"/>
<path d="M11 40L21 45L17.9704 41.0586L11 40L17.9704 39.009L21 35L11 40Z" fill="#268AFF"/>
<path d="M31 40L21 35L24.0296 38.9414L31 40L24.0296 40.991L21 45L31 40Z" fill="#268AFF"/>
<path d="M21 45L20.7764 45.4472L21 45.559L21.2236 45.4472L21 45ZM11 40L10.7764 39.5528L9.88197 40L10.7764 40.4472L11 40ZM21 35L21.2236 34.5528L21 34.441L20.7764 34.5528L21 35ZM17.9704 41.0586L18.3668 40.7538L18.2443 40.5944L18.0455 40.5642L17.9704 41.0586ZM17.9704 39.009L18.0408 39.504L18.245 39.475L18.3693 39.3105L17.9704 39.009ZM31 40L31.2236 40.4472L32.118 40L31.2236 39.5528L31 40ZM24.0296 38.9414L23.6332 39.2462L23.7557 39.4056L23.9545 39.4358L24.0296 38.9414ZM24.0296 40.991L23.9592 40.496L23.755 40.525L23.6307 40.6895L24.0296 40.991ZM21.2236 44.5528L11.2236 39.5528L10.7764 40.4472L20.7764 45.4472L21.2236 44.5528ZM11.2236 40.4472L21.2236 35.4472L20.7764 34.5528L10.7764 39.5528L11.2236 40.4472ZM21.3964 44.6953L18.3668 40.7538L17.574 41.3633L20.6036 45.3047L21.3964 44.6953ZM18.0455 40.5642L11.0751 39.5057L10.9249 40.4943L17.8953 41.5529L18.0455 40.5642ZM11.0704 40.495L18.0408 39.504L17.9 38.514L10.9296 39.505L11.0704 40.495ZM18.3693 39.3105L21.3989 35.3015L20.6011 34.6985L17.5715 38.7076L18.3693 39.3105ZM20.7764 35.4472L30.7764 40.4472L31.2236 39.5528L21.2236 34.5528L20.7764 35.4472ZM30.7764 39.5528L20.7764 44.5528L21.2236 45.4472L31.2236 40.4472L30.7764 39.5528ZM20.6036 35.3047L23.6332 39.2462L24.426 38.6367L21.3964 34.6953L20.6036 35.3047ZM23.9545 39.4358L30.9249 40.4943L31.0751 39.5057L24.1047 38.4471L23.9545 39.4358ZM30.9296 39.505L23.9592 40.496L24.1 41.486L31.0704 40.495L30.9296 39.505ZM23.6307 40.6895L20.6011 44.6985L21.3989 45.3015L24.4285 41.2924L23.6307 40.6895Z" fill="#268AFF"/>
<path d="M81.8012 39.48C83.7212 40.152 85.2252 41.208 86.3132 42.648C87.4012 44.056 87.9452 45.768 87.9452 47.784C87.9452 50.728 86.7612 53 84.3932 54.6C82.0252 56.2 78.6012 57 74.1212 57H55.9772V23.4H73.1612C77.4492 23.4 80.7132 24.2 82.9532 25.8C85.1932 27.368 86.3132 29.496 86.3132 32.184C86.3132 33.784 85.9132 35.224 85.1132 36.504C84.3452 37.752 83.2412 38.744 81.8012 39.48ZM65.3852 30.264V36.744H71.9132C75.1132 36.744 76.7132 35.656 76.7132 33.48C76.7132 31.336 75.1132 30.264 71.9132 30.264H65.3852ZM73.3532 50.136C76.6812 50.136 78.3452 49 78.3452 46.728C78.3452 44.456 76.6812 43.32 73.3532 43.32H65.3852V50.136H73.3532ZM142.357 55.944C141.589 56.424 140.645 56.792 139.525 57.048C138.437 57.304 137.269 57.432 136.021 57.432C132.629 57.432 130.021 56.6 128.197 54.936C126.373 53.272 125.461 50.792 125.461 47.496V38.76H121.669V31.944H125.461V25.176H134.581V31.944H140.533V38.76H134.581V47.4C134.581 48.328 134.821 49.064 135.301 49.608C135.813 50.12 136.485 50.376 137.317 50.376C138.373 50.376 139.301 50.104 140.101 49.56L142.357 55.944ZM177.026 57.672C173.506 57.672 170.338 56.936 167.522 55.464C164.738 53.96 162.546 51.88 160.946 49.224C159.346 46.568 158.546 43.56 158.546 40.2C158.546 36.84 159.346 33.832 160.946 31.176C162.546 28.52 164.738 26.456 167.522 24.984C170.338 23.48 173.506 22.728 177.026 22.728C180.098 22.728 182.866 23.272 185.33 24.36C187.794 25.448 189.842 27.016 191.474 29.064L185.426 34.536C183.25 31.912 180.61 30.6 177.506 30.6C175.682 30.6 174.05 31 172.61 31.8C171.202 32.6 170.098 33.736 169.298 35.208C168.53 36.648 168.146 38.312 168.146 40.2C168.146 42.088 168.53 43.768 169.298 45.24C170.098 46.68 171.202 47.8 172.61 48.6C174.05 49.4 175.682 49.8 177.506 49.8C180.61 49.8 183.25 48.488 185.426 45.864L191.474 51.336C189.842 53.384 187.794 54.952 185.33 56.04C182.866 57.128 180.098 57.672 177.026 57.672ZM207.539 57.432C204.755 57.432 202.243 56.856 200.003 55.704C197.763 54.552 196.003 52.952 194.723 50.904C193.475 48.856 192.851 46.536 192.851 43.944C192.851 41.384 193.475 39.08 194.723 37.032C196.003 34.984 197.747 33.4 199.955 32.28C202.195 31.128 204.723 30.552 207.539 30.552C210.355 30.552 212.883 31.128 215.123 32.28C217.363 33.4 219.107 34.984 220.355 37.032C221.603 39.048 222.227 41.352 222.227 43.944C222.227 46.536 221.603 48.856 220.355 50.904C219.107 52.952 217.363 54.552 215.123 55.704C212.883 56.856 210.355 57.432 207.539 57.432ZM207.539 50.184C209.139 50.184 210.451 49.64 211.475 48.552C212.499 47.432 213.011 45.896 213.011 43.944C213.011 42.024 212.499 40.52 211.475 39.432C210.451 38.344 209.139 37.8 207.539 37.8C205.939 37.8 204.627 38.344 203.603 39.432C202.579 40.52 202.067 42.024 202.067 43.944C202.067 45.896 202.579 47.432 203.603 48.552C204.627 49.64 205.939 50.184 207.539 50.184ZM243.395 30.552C246.627 30.552 249.219 31.512 251.171 33.432C253.155 35.352 254.147 38.248 254.147 42.12V57H245.027V43.608C245.027 40.056 243.603 38.28 240.755 38.28C239.187 38.28 237.923 38.792 236.963 39.816C236.035 40.84 235.571 42.376 235.571 44.424V57H226.451V30.984H235.139V33.816C236.163 32.76 237.379 31.96 238.787 31.416C240.195 30.84 241.731 30.552 243.395 30.552ZM277.825 55.944C277.057 56.424 276.113 56.792 274.993 57.048C273.905 57.304 272.737 57.432 271.489 57.432C268.097 57.432 265.489 56.6 263.665 54.936C261.841 53.272 260.929 50.792 260.929 47.496V38.76H257.137V31.944H260.929V25.176H270.049V31.944H276.001V38.76H270.049V47.4C270.049 48.328 270.289 49.064 270.769 49.608C271.281 50.12 271.953 50.376 272.785 50.376C273.841 50.376 274.769 50.104 275.569 49.56L277.825 55.944ZM290.03 34.104C290.958 32.92 292.158 32.04 293.63 31.464C295.134 30.856 296.846 30.552 298.766 30.552V38.76C297.934 38.664 297.246 38.616 296.702 38.616C294.75 38.616 293.214 39.144 292.094 40.2C291.006 41.256 290.462 42.872 290.462 45.048V57H281.342V30.984H290.03V34.104ZM315.351 57.432C312.567 57.432 310.055 56.856 307.815 55.704C305.575 54.552 303.815 52.952 302.535 50.904C301.287 48.856 300.663 46.536 300.663 43.944C300.663 41.384 301.287 39.08 302.535 37.032C303.815 34.984 305.559 33.4 307.767 32.28C310.007 31.128 312.535 30.552 315.351 30.552C318.167 30.552 320.695 31.128 322.935 32.28C325.175 33.4 326.919 34.984 328.167 37.032C329.415 39.048 330.039 41.352 330.039 43.944C330.039 46.536 329.415 48.856 328.167 50.904C326.919 52.952 325.175 54.552 322.935 55.704C320.695 56.856 318.167 57.432 315.351 57.432ZM315.351 50.184C316.951 50.184 318.263 49.64 319.287 48.552C320.311 47.432 320.823 45.896 320.823 43.944C320.823 42.024 320.311 40.52 319.287 39.432C318.263 38.344 316.951 37.8 315.351 37.8C313.751 37.8 312.439 38.344 311.415 39.432C310.391 40.52 309.879 42.024 309.879 43.944C309.879 45.896 310.391 47.432 311.415 48.552C312.439 49.64 313.751 50.184 315.351 50.184ZM334.264 21.384H343.384V57H334.264V21.384Z" fill="black"/>
<path d="M105.492 57.432C102.708 57.432 100.196 56.856 97.9558 55.704C95.7158 54.552 93.9558 52.952 92.6758 50.904C91.4278 48.856 90.8038 46.536 90.8038 43.944C90.8038 41.384 91.4278 39.08 92.6758 37.032C93.9558 34.984 95.6998 33.4 97.9078 32.28C100.148 31.128 102.676 30.552 105.492 30.552C108.308 30.552 110.836 31.128 113.076 32.28C115.316 33.4 117.06 34.984 118.308 37.032C119.556 39.048 120.18 41.352 120.18 43.944C120.18 46.536 119.556 48.856 118.308 50.904C117.06 52.952 115.316 54.552 113.076 55.704C110.836 56.856 108.308 57.432 105.492 57.432ZM105.492 50.184C107.092 50.184 108.404 49.64 109.428 48.552C110.452 47.432 110.964 45.896 110.964 43.944C110.964 42.024 110.452 40.52 109.428 39.432C108.404 38.344 107.092 37.8 105.492 37.8C103.892 37.8 102.58 38.344 101.556 39.432C100.532 40.52 100.02 42.024 100.02 43.944C100.02 45.896 100.532 47.432 101.556 48.552C102.58 49.64 103.892 50.184 105.492 50.184Z" fill="#268AFF"/>
</svg>
